<svg width="40" height="32" viewBox="0 0 40 32" fill="none" xmlns="http://www.w3.org/2000/svg">
<path d="M0 4C0 1.8 1.8 0 4 0H36C37.0609 0 38.0783 0.421427 38.8284 1.17157C39.5786 1.92172 40 2.93913 40 4V28C40 29.0609 39.5786 30.0783 38.8284 30.8284C38.0783 31.5786 37.0609 32 36 32H4C2.93913 32 1.92172 31.5786 1.17157 30.8284C0.421427 30.0783 0 29.0609 0 28V4ZM22 22L16 16L4 28H36L26 18L22 22ZM30 14C31.0609 14 32.0783 13.5786 32.8284 12.8284C33.5786 12.0783 34 11.0609 34 10C34 8.93913 33.5786 7.92172 32.8284 7.17157C32.0783 6.42143 31.0609 6 30 6C28.9391 6 27.9217 6.42143 27.1716 7.17157C26.4214 7.92172 26 8.93913 26 10C26 11.0609 26.4214 12.0783 27.1716 12.8284C27.9217 13.5786 28.9391 14 30 14Z" fill="black"/>
</svg>
